<svg width="115" height="120" viewBox="0 0 115 120" fill="none" xmlns="http://www.w3.org/2000/svg">
<circle cx="57.5" cy="62.5" r="52" fill="white" stroke="#EFFFCC" stroke-width="11"/>
<path d="M51.1851 10.8849C51.297 10.8712 51.3628 10.8857 51.4089 10.9019C51.4634 10.9209 51.5428 10.9622 51.6327 11.0489C51.8221 11.2312 52 11.5618 52 12C52 12.2563 51.9085 12.5575 51.598 12.8827C51.2661 13.2302 50.7488 13.5198 50.1457 13.6105C45.779 14.2674 41.5089 15.508 37.4522 17.3076C31.1395 20.1079 25.4836 24.1997 20.8488 29.3193C16.214 34.4388 12.7032 40.4726 10.5425 47.0318C9.17992 51.1683 8.37337 55.4559 8.13519 59.7824C8.09774 60.4625 7.83218 61.072 7.47714 61.4852C7.14275 61.8743 6.79877 62.0247 6.48482 62.056C6.10976 62.0933 5.81945 61.9688 5.65824 61.8318C5.58238 61.7673 5.54823 61.712 5.53373 61.681C5.5229 61.6579 5.50741 61.6182 5.509 61.5326C5.60558 56.3421 6.47917 51.1834 8.11063 46.2307C10.3832 39.3318 14.0758 32.9856 18.9507 27.6009C23.8255 22.2162 29.7744 17.9125 36.4139 14.9671C41.1196 12.8796 46.0983 11.5072 51.1851 10.8849Z" stroke="#A1C452" stroke-width="11"/>
<path fill-rule="evenodd" clip-rule="evenodd" d="M60.5 23C66.8513 23 72 17.8513 72 11.5C72 5.14873 66.8513 0 60.5 0C54.1487 0 49 5.14873 49 11.5C49 17.8513 54.1487 23 60.5 23Z" fill="#A1C452"/>
<path d="M64.0436 8.95409C63.6094 8.52893 62.9075 8.53596 62.487 8.97471L59.4099 12.0518L58.5134 11.1884L58.4968 11.1718C58.0658 10.7409 57.3671 10.7409 56.9361 11.1718C56.5051 11.6028 56.5051 12.3015 56.9361 12.7325L56.9527 12.7491L58.613 14.4094C59.0321 14.8468 59.7289 14.8542 60.1573 14.4258L60.1737 14.4094L64.0477 10.5354L64.0561 10.527C64.4902 10.0929 64.4823 9.38367 64.0436 8.95409Z" fill="white"/>
<path d="M41.6982 64.06V67H28.3142V64.34L35.0902 57.032C35.8928 56.1547 36.4808 55.352 36.8542 54.624C37.2275 53.896 37.4142 53.1773 37.4142 52.468C37.4142 51.5533 37.1435 50.8627 36.6022 50.396C36.0795 49.9293 35.3235 49.696 34.3342 49.696C32.5795 49.696 30.7782 50.3867 28.9302 51.768L27.7262 49.136C28.5102 48.4267 29.5182 47.8667 30.7502 47.456C31.9822 47.0267 33.2235 46.812 34.4742 46.812C36.4715 46.812 38.0488 47.3067 39.2062 48.296C40.3822 49.2667 40.9702 50.5827 40.9702 52.244C40.9702 53.3827 40.7182 54.456 40.2142 55.464C39.7288 56.472 38.9075 57.6013 37.7502 58.852L32.8502 64.06H41.6982ZM53.6066 54.26C54.8572 54.26 55.9586 54.5307 56.9106 55.072C57.8626 55.5947 58.5999 56.3413 59.1226 57.312C59.6452 58.264 59.9066 59.3653 59.9066 60.616C59.9066 61.9227 59.6079 63.08 59.0106 64.088C58.4132 65.0773 57.5546 65.852 56.4346 66.412C55.3146 66.9533 54.0172 67.224 52.5426 67.224C51.2919 67.224 50.0599 67.0187 48.8466 66.608C47.6332 66.1787 46.6346 65.6093 45.8506 64.9L47.0546 62.268C48.8652 63.6493 50.7132 64.34 52.5986 64.34C53.8492 64.34 54.8012 64.032 55.4546 63.416C56.1266 62.7813 56.4626 61.8853 56.4626 60.728C56.4626 59.6267 56.1172 58.7493 55.4266 58.096C54.7546 57.424 53.8492 57.088 52.7106 57.088C51.9266 57.088 51.1892 57.2373 50.4986 57.536C49.8079 57.816 49.2012 58.236 48.6786 58.796H46.4946V47.064H58.9826V49.864H50.0226V55.296C51.0306 54.6053 52.2252 54.26 53.6066 54.26ZM68.1756 58.964C66.6076 58.964 65.3756 58.4507 64.4796 57.424C63.6023 56.3787 63.1636 54.8573 63.1636 52.86C63.1636 50.8813 63.6023 49.3787 64.4796 48.352C65.3756 47.3067 66.6076 46.784 68.1756 46.784C69.7623 46.784 71.0036 47.3067 71.8996 48.352C72.7956 49.3787 73.2436 50.8813 73.2436 52.86C73.2436 54.8573 72.7956 56.3787 71.8996 57.424C71.0036 58.4507 69.7623 58.964 68.1756 58.964ZM67.9796 67L79.5156 47.064H82.6236L71.0596 67H67.9796ZM68.1756 56.696C68.9036 56.696 69.4356 56.3973 69.7716 55.8C70.1076 55.2027 70.2756 54.2227 70.2756 52.86C70.2756 51.5347 70.0983 50.5733 69.7436 49.976C69.4076 49.36 68.885 49.052 68.1756 49.052C67.485 49.052 66.9716 49.36 66.6356 49.976C66.2996 50.5733 66.1316 51.5347 66.1316 52.86C66.1316 54.204 66.2996 55.184 66.6356 55.8C66.9716 56.3973 67.485 56.696 68.1756 56.696ZM82.3996 67.196C80.813 67.196 79.5716 66.6827 78.6756 65.656C77.7983 64.6107 77.3596 63.08 77.3596 61.064C77.3596 59.0853 77.7983 57.5827 78.6756 56.556C79.5716 55.5293 80.813 55.016 82.3996 55.016C83.9863 55.016 85.2183 55.5293 86.0956 56.556C86.9916 57.5827 87.4396 59.0947 87.4396 61.092C87.4396 63.0893 86.9916 64.6107 86.0956 65.656C85.2183 66.6827 83.9863 67.196 82.3996 67.196ZM82.3996 64.928C83.109 64.928 83.6316 64.6293 83.9676 64.032C84.3036 63.416 84.4716 62.436 84.4716 61.092C84.4716 59.7667 84.2943 58.8053 83.9396 58.208C83.6036 57.592 83.0903 57.284 82.3996 57.284C81.6903 57.284 81.1676 57.592 80.8316 58.208C80.4956 58.8053 80.3276 59.7667 80.3276 61.092C80.3276 62.436 80.4956 63.416 80.8316 64.032C81.1676 64.6293 81.6903 64.928 82.3996 64.928Z" fill="#272D2F"/>
<path d="M39.9327 84.08C39.2527 84.08 38.666 83.9333 38.1727 83.64C37.6794 83.3467 37.2994 82.9267 37.0327 82.38C36.766 81.8333 36.6327 81.1833 36.6327 80.43C36.6327 79.6767 36.766 79.03 37.0327 78.49C37.2994 77.95 37.6794 77.5333 38.1727 77.24C38.666 76.9467 39.2527 76.8 39.9327 76.8C40.4194 76.8 40.8694 76.8767 41.2827 77.03C41.696 77.1767 42.0527 77.4 42.3527 77.7L42.0427 78.33C41.7027 78.0367 41.366 77.8267 41.0327 77.7C40.6994 77.5733 40.336 77.51 39.9427 77.51C39.1627 77.51 38.556 77.7633 38.1227 78.27C37.696 78.7767 37.4827 79.4967 37.4827 80.43C37.4827 81.37 37.696 82.0967 38.1227 82.61C38.5494 83.1167 39.156 83.37 39.9427 83.37C40.336 83.37 40.6994 83.3067 41.0327 83.18C41.366 83.0533 41.7027 82.8433 42.0427 82.55L42.3527 83.18C42.0527 83.48 41.696 83.7067 41.2827 83.86C40.8694 84.0067 40.4194 84.08 39.9327 84.08ZM45.611 84.07C45.131 84.07 44.711 83.9633 44.351 83.75C43.9976 83.5367 43.721 83.2367 43.521 82.85C43.3276 82.4567 43.231 81.9933 43.231 81.46C43.231 80.9333 43.3276 80.4733 43.521 80.08C43.721 79.6867 43.9976 79.3833 44.351 79.17C44.711 78.9567 45.131 78.85 45.611 78.85C46.091 78.85 46.5076 78.9567 46.861 79.17C47.221 79.3833 47.4976 79.6867 47.691 80.08C47.891 80.4733 47.991 80.9333 47.991 81.46C47.991 81.9933 47.891 82.4567 47.691 82.85C47.4976 83.2367 47.221 83.5367 46.861 83.75C46.5076 83.9633 46.091 84.07 45.611 84.07ZM45.611 83.4C46.1043 83.4 46.4843 83.2367 46.751 82.91C47.0243 82.5767 47.161 82.0933 47.161 81.46C47.161 80.84 47.0243 80.3633 46.751 80.03C46.4776 79.6967 46.0976 79.53 45.611 79.53C45.1243 79.53 44.741 79.6967 44.461 80.03C44.1876 80.3633 44.051 80.84 44.051 81.46C44.051 82.0933 44.1843 82.5767 44.451 82.91C44.7243 83.2367 45.111 83.4 45.611 83.4ZM49.2536 84V80.38C49.2536 80.1467 49.247 79.9133 49.2336 79.68C49.227 79.44 49.207 79.2033 49.1736 78.97H49.9436L50.0336 80.01L49.9336 80.08C50.0536 79.6867 50.2603 79.3833 50.5536 79.17C50.8536 78.9567 51.207 78.85 51.6136 78.85C52.1003 78.85 52.477 78.97 52.7436 79.21C53.017 79.45 53.1903 79.8167 53.2636 80.31L53.0236 80.18C53.1303 79.7733 53.3436 79.45 53.6636 79.21C53.9903 78.97 54.3803 78.85 54.8336 78.85C55.387 78.85 55.8036 79.0167 56.0836 79.35C56.3636 79.6767 56.5036 80.1733 56.5036 80.84V84H55.6936V80.88C55.6936 80.4133 55.6103 80.0733 55.4436 79.86C55.277 79.64 55.0136 79.53 54.6536 79.53C54.2336 79.53 53.9003 79.6733 53.6536 79.96C53.4136 80.2467 53.2936 80.6367 53.2936 81.13V84H52.4836V80.88C52.4836 80.4133 52.397 80.0733 52.2236 79.86C52.057 79.64 51.7936 79.53 51.4336 79.53C51.007 79.53 50.6703 79.6733 50.4236 79.96C50.1836 80.2467 50.0636 80.6367 50.0636 81.13V84H49.2536ZM58.0427 86.16V80.38C58.0427 80.1467 58.036 79.9133 58.0227 79.68C58.016 79.44 57.996 79.2033 57.9627 78.97H58.7327L58.8227 80.01L58.7427 80.16C58.856 79.74 59.0727 79.4167 59.3927 79.19C59.7127 78.9633 60.0994 78.85 60.5527 78.85C60.9927 78.85 61.3794 78.96 61.7127 79.18C62.0527 79.4 62.316 79.7067 62.5027 80.1C62.696 80.4933 62.7927 80.9533 62.7927 81.48C62.7927 82.0067 62.696 82.4667 62.5027 82.86C62.316 83.2467 62.056 83.5467 61.7227 83.76C61.3894 83.9667 60.9994 84.07 60.5527 84.07C60.0994 84.07 59.7127 83.9567 59.3927 83.73C59.0727 83.5033 58.856 83.18 58.7427 82.76L58.8527 82.66V86.16H58.0427ZM60.4027 83.4C60.8894 83.4 61.2694 83.2333 61.5427 82.9C61.816 82.5667 61.9527 82.0933 61.9527 81.48C61.9527 80.8667 61.816 80.39 61.5427 80.05C61.2694 79.7033 60.8894 79.53 60.4027 79.53C59.9027 79.53 59.5194 79.6967 59.2527 80.03C58.986 80.3633 58.8527 80.84 58.8527 81.46C58.8527 82.08 58.986 82.56 59.2527 82.9C59.5194 83.2333 59.9027 83.4 60.4027 83.4ZM64.0388 84V76.64H64.8488V84H64.0388ZM70.5416 83.4C70.3216 83.6067 70.0383 83.77 69.6916 83.89C69.3516 84.01 69.0016 84.07 68.6416 84.07C68.1216 84.07 67.6716 83.9667 67.2916 83.76C66.9183 83.5533 66.6283 83.2567 66.4216 82.87C66.2216 82.4767 66.1216 82.01 66.1216 81.47C66.1216 80.95 66.2216 80.4933 66.4216 80.1C66.6216 79.7067 66.8983 79.4 67.2516 79.18C67.6116 78.96 68.0249 78.85 68.4916 78.85C68.9383 78.85 69.3216 78.95 69.6416 79.15C69.9616 79.3433 70.2049 79.6233 70.3716 79.99C70.5449 80.3567 70.6316 80.7967 70.6316 81.31V81.46H66.8316V80.93H70.1716L69.9116 81.3C69.9249 80.7133 69.8083 80.2633 69.5616 79.95C69.3216 79.6367 68.9683 79.48 68.5016 79.48C68.0149 79.48 67.6316 79.6533 67.3516 80C67.0783 80.34 66.9416 80.8133 66.9416 81.42C66.9416 82.0733 67.0849 82.5667 67.3716 82.9C67.6649 83.2333 68.0916 83.4 68.6516 83.4C68.9449 83.4 69.2249 83.3533 69.4916 83.26C69.7649 83.16 70.0249 83.01 70.2716 82.81L70.5416 83.4ZM71.1218 79.61V78.97H74.3518V79.61H71.1218ZM74.3318 83.28V83.97C74.2184 84.0033 74.1051 84.0267 73.9918 84.04C73.8851 84.06 73.7651 84.07 73.6318 84.07C73.1651 84.07 72.7918 83.9367 72.5118 83.67C72.2384 83.4033 72.1018 83.0033 72.1018 82.47V77.68L72.9118 77.39V82.36C72.9118 82.6267 72.9484 82.8333 73.0218 82.98C73.1018 83.1267 73.2084 83.23 73.3418 83.29C73.4751 83.3433 73.6251 83.37 73.7918 83.37C73.8918 83.37 73.9818 83.3633 74.0618 83.35C74.1418 83.3367 74.2318 83.3133 74.3318 83.28ZM79.4479 83.4C79.2279 83.6067 78.9445 83.77 78.5979 83.89C78.2579 84.01 77.9079 84.07 77.5479 84.07C77.0279 84.07 76.5779 83.9667 76.1979 83.76C75.8245 83.5533 75.5345 83.2567 75.3279 82.87C75.1279 82.4767 75.0279 82.01 75.0279 81.47C75.0279 80.95 75.1279 80.4933 75.3279 80.1C75.5279 79.7067 75.8045 79.4 76.1579 79.18C76.5179 78.96 76.9312 78.85 77.3979 78.85C77.8445 78.85 78.2279 78.95 78.5479 79.15C78.8679 79.3433 79.1112 79.6233 79.2779 79.99C79.4512 80.3567 79.5379 80.7967 79.5379 81.31V81.46H75.7379V80.93H79.0779L78.8179 81.3C78.8312 80.7133 78.7145 80.2633 78.4679 79.95C78.2279 79.6367 77.8745 79.48 77.4079 79.48C76.9212 79.48 76.5379 79.6533 76.2579 80C75.9845 80.34 75.8479 80.8133 75.8479 81.42C75.8479 82.0733 75.9912 82.5667 76.2779 82.9C76.5712 83.2333 76.9979 83.4 77.5579 83.4C77.8512 83.4 78.1312 83.3533 78.3979 83.26C78.6712 83.16 78.9312 83.01 79.1779 82.81L79.4479 83.4Z" fill="#272D2F"/>
</svg>
